# xmcd
#
# Track frame offsets: 
#        150
#        13055
#        24167
#        50802
#        65802
#        87767
#        102720
#        116815
#        132315
#        146517
#        160202
#        175262
#        191895
#        208350
#        221560
#        235472
#        251845
#        269120
#        284260
#        297755
#        315837
#        336510
#
# Disc length: 4790 seconds
#
# Revision: 5
# Processed by: cddbd v1.5.2PL0 Copyright (c) Steve Scherf et al.
# Submitted via: ExactAudioCopyFreeDBPlugin 1.0
#
DISCID=6a12b416
DTITLE=The Four Tops - Four Tops:  Fourever [box set]
DYEAR=2001
DGENRE=Soul
TTITLE0=It's All in the Game (single version)
TTITLE1=Love (Is the Answer) (single version)
TTITLE2=Still Water (Peace) - Still Water (Love) (unedited mix)
TTITLE3=Ballad to:  The One I Love
TTITLE4=River Deep - Mountain High (with The Supremes)
TTITLE5=I'm Glad About It (with The Supremes)
TTITLE6=Just Seven Numbers (Can Straighten Out My Life) (single versio
TTITLE6=n)
TTITLE7=In These Changing Times (single version)
TTITLE8=A Simple Game (unedited mix)
TTITLE9=You Stole My Love (single version)
TTITLE10=So Deep Within You (single version)
TTITLE11=I Can't Quit Your Love (single version)
TTITLE12=(It's the Way) Nature Planned It (single version)
TTITLE13=Keeper of the Castle
TTITLE14=Ain't No Woman (Like the One I Got)
TTITLE15=Love Music
TTITLE16=Remember What I Told You to Forget
TTITLE17=Are You Man Enough
TTITLE18=Sweet Understanding Love
TTITLE19=I Just Can't Get You Out of My Mind
TTITLE20=One Woman Man
TTITLE21=Main Street People (Intro) - Main Street People
EXTD=
EXTT0=
EXTT1=
EXTT2=
EXTT3=
EXTT4=
EXTT5=
EXTT6=
EXTT7=
EXTT8=
EXTT9=
EXTT10=
EXTT11=
EXTT12=
EXTT13=
EXTT14=
EXTT15=
EXTT16=
EXTT17=
EXTT18=
EXTT19=
EXTT20=
EXTT21=
PLAYORDER=
